<svg xmlns="http://www.w3.org/2000/svg" fill="none" viewBox="7.29 80.3 111.82 101.52">
<path d="M52.1996 178.82H74.0996" stroke="#FFFFFF" stroke-width="6" stroke-miterlimit="10" stroke-linecap="round" stroke-linejoin="round"/>
<path fill-rule="evenodd" clip-rule="evenodd" d="M97.7996 106.62C96.5996 104.32 94.8996 102.62 92.6996 101.32C90.5996 100.22 88.4996 99.3203 80.8996 99.3203H45.4996C37.8996 99.3203 35.7996 100.12 33.6996 101.32C31.4996 102.52 29.6996 104.32 28.5996 106.62C27.4996 108.72 26.6996 110.92 26.6996 118.72V144.02C26.6996 151.82 27.4996 153.92 28.5996 156.12C29.7996 158.42 31.4996 160.12 33.6996 161.42C35.7996 162.52 37.8996 163.42 45.4996 163.42H80.8996C88.4996 163.42 90.5996 162.62 92.6996 161.42C94.8996 160.22 96.6996 158.42 97.7996 156.12C98.8996 154.02 99.6996 151.82 99.6996 144.02V118.72C99.6996 110.82 98.8996 108.72 97.7996 106.62Z" stroke="#FFFFFF" stroke-width="6" stroke-miterlimit="10" stroke-linecap="round" stroke-linejoin="round"/>
<path fill-rule="evenodd" clip-rule="evenodd" d="M76.3995 131.32C76.3995 138.62 69.8995 144.52 63.1995 144.52C56.4995 144.52 49.9995 138.62 49.9995 131.32C49.9995 124.02 56.4995 118.12 63.1995 118.12C69.8995 118.12 76.3995 124.02 76.3995 131.32Z" stroke="#FFFFFF" stroke-width="6" stroke-miterlimit="10" stroke-linecap="round" stroke-linejoin="round"/>
<path d="M10.2996 125.92C10.2996 125.92 9.59958 104.22 20.1996 92.6202C29.5996 82.4202 39.4996 83.3202 39.4996 83.3202H62.6996" stroke="#FFFFFF" stroke-width="6" stroke-miterlimit="10" stroke-linecap="round" stroke-linejoin="round"/>
<path d="M116.1 125.92C116.1 125.92 116.8 104.22 106.2 92.6202C96.7996 82.4202 86.8996 83.3202 86.8996 83.3202H63.6996" stroke="#FFFFFF" stroke-width="6" stroke-miterlimit="10" stroke-linecap="round" stroke-linejoin="round"/>
</svg>